HIERARCHY
ROOT SpineBase
{
  OFFSET 0.000000 0.000000 0.000000
  CHANNELS 6 Xposition Yposition Zposition Zrotation Xrotation Yrotation
  JOINT SpineMid
  {
    OFFSET 0.000000 27.240385 0.000000
    CHANNELS 3 Zrotation Xrotation Yrotation
    JOINT SpineShoulder
    {
      OFFSET -0.173535 20.482933 -0.610088
      CHANNELS 3 Zrotation Xrotation Yrotation
      JOINT Neck
      {
        OFFSET -0.108194 6.830964 -0.489501
        CHANNELS 3 Zrotation Xrotation Yrotation
        JOINT Head
        {
          OFFSET -2.917870 11.844401 1.431177
          CHANNELS 3 Zrotation Xrotation Yrotation
          End Site
          {
            OFFSET 0 0 0
          }
        }
      }
      JOINT ShoulderLeft
      {
        OFFSET -13.052231 -4.242873 4.286883
        CHANNELS 3 Zrotation Xrotation Yrotation
        JOINT ElbowLeft
        {
          OFFSET -0.482368 -23.422199 1.357860
          CHANNELS 3 Zrotation Xrotation Yrotation
          JOINT WristLeft
          {
            OFFSET -0.646996 -19.844248 -5.396897
            CHANNELS 3 Zrotation Xrotation Yrotation
            JOINT HandLeft
            {
              OFFSET 0.656255 -6.346531 -1.471796
              CHANNELS 3 Zrotation Xrotation Yrotation
              JOINT HandTipLeft
              {
                OFFSET 1.659327 -6.271110 -0.749021
                CHANNELS 3 Zrotation Xrotation Yrotation
                End Site
                {
                  OFFSET 0 0 0
                }
              }
              JOINT ThumbLeft
              {
                OFFSET 3.017807 1.660414 -3.674243
                CHANNELS 3 Zrotation Xrotation Yrotation
                End Site
                {
                  OFFSET 0 0 0
                }
              }
            }
          }
        }
      }
      JOINT ShoulderRight
      {
        OFFSET 11.606649 -2.770390 -6.936203
        CHANNELS 3 Zrotation Xrotation Yrotation
        JOINT ElbowRight
        {
          OFFSET 4.627499 -21.450813 -2.881349
          CHANNELS 3 Zrotation Xrotation Yrotation
          JOINT WristRight
          {
            OFFSET -0.540379 -19.710203 -7.054720
            CHANNELS 3 Zrotation Xrotation Yrotation
            JOINT HandRight
            {
              OFFSET -1.109699 -6.484127 -0.987436
              CHANNELS 3 Zrotation Xrotation Yrotation
              JOINT HandTipRight
              {
                OFFSET -0.348654 -5.673542 -1.288178
                CHANNELS 3 Zrotation Xrotation Yrotation
                End Site
                {
                  OFFSET 0 0 0
                }
              }
              JOINT ThumbRight
              {
                OFFSET -1.393810 -0.704974 -2.408425
                CHANNELS 3 Zrotation Xrotation Yrotation
                End Site
                {
                  OFFSET 0 0 0
                }
              }
            }
          }
        }
      }
    }
  }
  JOINT HipLeft
  {
    OFFSET -5.374759 0.329383 -1.297499
    CHANNELS 3 Zrotation Xrotation Yrotation
    JOINT KneeLeft
    {
      OFFSET 5.726955 -29.744672 1.153590
      CHANNELS 3 Zrotation Xrotation Yrotation
      JOINT AnkleLeft
      {
        OFFSET 5.630812 -31.478894 4.991958
        CHANNELS 3 Zrotation Xrotation Yrotation
        JOINT FootLeft
        {
          OFFSET -3.099834 -2.333211 -9.843379
          CHANNELS 3 Zrotation Xrotation Yrotation
          End Site
          {
            OFFSET 0 0 0
          }
        }
      }
    }
  }
  JOINT HipRight
  {
    OFFSET 4.887420 1.720729 -4.683059
    CHANNELS 3 Zrotation Xrotation Yrotation
    JOINT KneeRight
    {
      OFFSET 6.182984 -22.432168 -4.578769
      CHANNELS 3 Zrotation Xrotation Yrotation
      JOINT AnkleRight
      {
        OFFSET 8.117385 -40.304580 6.689454
        CHANNELS 3 Zrotation Xrotation Yrotation
        JOINT FootRight
        {
          OFFSET -3.607670 -1.819759 -9.158792
          CHANNELS 3 Zrotation Xrotation Yrotation
          End Site
          {
            OFFSET 0 0 0
          }
        }
      }
    }
  }
}
MOTION
Frames: 10
Frame Time: 0.033333
25.720776 66.653281 361.634123 -0.000000 0.000000 18.258059 0.000000 0.000000 -18.258059 -0.000000 0.000000 0.000000 -0.000000 0.000000 0.000000 0.000000 0.000000 0.000000 -0.000000 0.000000 0.000000 -0.000000 0.000000 0.000000 -0.000000 0.000000 0.000000 -0.000000 0.000000 0.000000 0.000000 0.000000 0.000000 0.000000 0.000000 0.000000 -0.000000 0.000000 0.000000 -0.000000 0.000000 0.000000 -0.000000 0.000000 0.000000 -0.000000 0.000000 0.000000 0.000000 0.000000 0.000000 0.000000 0.000000 0.000000 0.000000 0.000000 -18.258059 -0.000000 0.000000 0.000000 -0.000000 0.000000 0.000000 0.000000 0.000000 0.000000 0.000000 0.000000 -18.258059 -0.000000 0.000000 0.000000 -0.000000 0.000000 0.000000 0.000000 0.000000 0.000000
25.706061 66.773367 361.660811 -0.007888 -0.019789 17.943819 0.013601 0.016396 -17.943823 -0.000000 0.000000 0.000000 -0.000000 0.000000 0.000000 0.000000 0.000000 0.000000 -0.000000 0.000000 0.000000 -0.000000 0.000000 0.000000 -0.000000 0.000000 0.000000 -6.589067 -0.180571 0.741110 0.000000 0.000000 0.000000 0.000000 0.000000 0.000000 -0.000000 0.000000 0.000000 -0.000000 0.000000 0.000000 1.392611 -0.120505 -0.190423 -2.181097 -0.200540 0.391212 0.000000 0.000000 0.000000 0.000000 0.000000 0.000000 0.013601 0.016396 -17.943823 -0.000000 0.000000 0.000000 -0.552210 1.206093 0.697609 0.000000 0.000000 0.000000 0.013601 0.016396 -17.943823 -0.000000 0.000000 0.000000 4.264622 -12.750526 12.009834 0.000000 0.000000 0.000000
25.695084 66.870813 361.688635 -0.012673 -0.040116 17.645937 0.024238 0.034386 -17.645949 -0.000000 0.000000 0.000000 -0.000000 0.000000 0.000000 0.000000 0.000000 0.000000 -0.000000 0.000000 0.000000 -0.000000 0.000000 0.000000 -0.737784 0.406838 0.215753 -11.148483 -0.853406 0.986891 0.000000 0.000000 0.000000 0.000000 0.000000 0.000000 0.730649 -0.583103 -0.220066 -1.567134 0.067558 0.545932 3.432369 0.360274 -0.711423 -3.969561 -0.461847 0.720668 0.000000 0.000000 0.000000 0.000000 0.000000 0.000000 0.024238 0.034386 -17.645949 -0.000000 0.000000 0.000000 -0.721715 1.703138 0.740035 0.000000 0.000000 0.000000 0.573697 -1.027419 -18.046546 -0.851446 0.839284 0.411595 13.691703 -26.489772 29.010369 0.000000 0.000000 0.000000
25.687844 66.945619 361.717596 -0.014326 -0.060948 17.366469 0.031865 0.053893 -17.366492 -0.000000 0.000000 0.000000 -0.000000 0.000000 0.000000 0.000000 0.000000 0.000000 -0.000000 0.000000 0.000000 0.299224 0.816722 -0.109936 -1.353077 -0.260024 0.398040 -14.710952 -1.358366 1.153158 0.000000 0.000000 0.000000 0.000000 0.000000 0.000000 1.005656 -0.819812 -0.304465 -2.132460 0.115924 0.750851 4.737486 0.629341 -1.018854 -5.396344 -0.789833 0.990480 0.000000 0.000000 0.000000 0.000000 0.000000 0.000000 0.031865 0.053893 -17.366492 -0.000000 0.000000 0.000000 -0.510298 1.524321 0.126518 0.000000 0.000000 0.000000 0.737762 -1.509498 -17.943254 -2.041498 1.220002 0.462022 28.175481 -35.788063 48.398425 0.000000 0.000000 0.000000
25.684342 66.997784 361.747692 -0.012827 -0.082250 17.107356 0.036455 0.074838 -17.107389 -0.000000 0.000000 0.000000 -0.000000 0.000000 0.000000 0.000000 0.000000 0.000000 -0.000000 0.000000 0.000000 0.421806 0.990416 -0.150318 -1.738130 -0.329268 0.502068 -16.890501 -1.871563 1.134609 0.000000 0.000000 0.000000 0.000000 0.000000 0.000000 1.214537 -1.015103 -0.370969 -2.556418 0.165716 0.910055 5.781378 0.969665 -1.295346 -6.482526 -1.188643 1.202944 0.000000 0.000000 0.000000 0.000000 0.000000 0.000000 0.036455 0.074838 -17.107389 -0.000000 0.000000 0.000000 0.092860 0.622715 -1.193470 0.000000 0.000000 0.000000 0.824644 -1.972380 -17.846349 -2.519640 1.643539 0.606447 40.907663 -39.700711 64.316409 0.000000 0.000000 0.000000
25.684578 67.027308 361.778924 -0.008170 -0.103985 16.870386 0.037996 0.097139 -16.870426 -0.000000 0.000000 0.000000 -0.000000 0.000000 0.000000 0.000000 0.000000 0.000000 -0.000000 0.000000 0.000000 0.555115 1.115829 -0.192280 -2.066614 -0.404295 0.586433 -17.715167 -2.383795 0.962134 0.000000 0.000000 0.000000 0.000000 0.000000 0.000000 1.353763 -1.165959 -0.419114 -2.840403 0.212295 1.022881 6.570517 1.388332 -1.541351 -7.241219 -1.661376 1.360899 0.000000 0.000000 0.000000 0.000000 0.000000 0.000000 0.037996 0.097139 -16.870426 -0.000000 0.000000 0.000000 1.106924 -1.139785 -3.326084 0.000000 0.000000 0.000000 0.837647 -2.417348 -17.759019 -2.902378 2.075645 0.745245 49.750556 -40.831973 74.554534 0.000000 0.000000 0.000000
25.676924 67.082660 361.814219 -0.022958 -0.122204 16.562734 0.056842 0.110589 -16.562814 -0.000000 0.000000 0.000000 -0.000000 0.000000 0.000000 0.000000 0.000000 0.000000 0.008634 -1.087045 0.022958 0.685121 2.313050 -0.271032 -2.284423 -0.308114 0.664041 -18.340872 -4.403515 0.076302 0.000000 0.000000 0.000000 0.000000 0.000000 0.000000 1.439377 -1.259650 -0.448723 -3.075783 0.282333 1.114737 7.042325 2.450952 -1.882531 -8.032607 -2.218217 1.568276 0.000000 0.000000 0.000000 0.000000 0.000000 0.000000 0.056842 0.110589 -16.562814 -0.000000 0.000000 0.000000 2.943890 -4.514865 -7.873170 0.000000 0.000000 0.000000 0.836592 -2.732377 -17.553648 -3.168831 2.334618 0.825771 54.315842 -41.638170 77.941486 0.000000 0.000000 0.000000
25.684258 67.063975 361.854229 -0.010854 -0.147598 16.351466 0.051968 0.138572 -16.351543 -0.000000 0.000000 0.000000 -0.000000 0.000000 0.000000 0.000000 0.000000 0.000000 0.010123 -1.339762 0.028279 0.854850 2.640595 -0.334390 -2.309642 -0.352816 0.680394 -13.744023 -4.478450 -0.281814 0.000000 0.000000 0.000000 0.000000 0.000000 0.000000 1.412336 -1.347585 -0.463329 -3.063418 0.338344 1.139168 7.438577 2.538077 -1.976063 -7.832852 -2.824199 1.540835 0.000000 0.000000 0.000000 0.000000 0.000000 0.000000 0.051968 0.138572 -16.351543 -0.000000 0.000000 0.000000 4.943164 -9.561423 -13.033884 0.000000 0.000000 0.000000 0.739351 -3.113416 -17.463789 -3.416789 2.744625 0.939334 51.673417 -43.559471 69.611667 0.000000 0.000000 0.000000
25.714457 66.970550 361.884407 0.025457 -0.168582 16.250085 0.022734 0.168971 -16.250081 -0.000000 0.000000 0.000000 0.153269 0.919575 0.206524 0.000000 0.000000 0.000000 -0.014895 -1.584811 0.031546 0.993220 2.915966 -0.378222 -2.772942 -0.575202 0.763751 -12.937552 -5.316987 -0.753734 0.000000 0.000000 0.000000 0.000000 0.000000 0.000000 1.319514 -1.367199 -0.456055 -2.907853 0.325256 1.107932 7.722986 3.245197 -2.172787 -8.266631 -4.257782 1.696250 0.000000 0.000000 0.000000 0.000000 0.000000 0.000000 0.022734 0.168971 -16.250081 -0.000000 0.000000 0.000000 6.739852 -16.047299 -18.355124 0.000000 0.000000 0.000000 0.649089 -3.095546 -17.360889 -3.224454 2.733092 0.941128 50.624357 -42.927218 69.823000 0.000000 0.000000 0.000000
25.754595 66.815904 361.905672 0.085327 -0.181028 16.273434 -0.031181 0.197686 -16.273245 -0.000000 0.000000 0.000000 0.147765 1.037239 0.236005 0.000000 0.000000 0.000000 -0.085454 -1.763459 0.030024 1.133213 3.105883 -0.404108 -2.153800 -1.084134 0.577794 -10.614756 -5.436482 -0.869534 0.000000 0.000000 0.000000 0.000000 0.000000 0.000000 1.108140 -1.244726 -0.405091 -2.577607 0.200733 1.002729 7.399931 3.548982 -2.155271 -6.866096 -3.689844 1.450578 0.000000 0.000000 0.000000 0.000000 0.000000 0.000000 -0.031181 0.197686 -16.273245 -0.000000 0.000000 0.000000 7.962562 -22.964783 -21.525053 0.000000 0.000000 0.000000 0.185010 -3.627650 -17.527990 -3.260533 3.480663 1.093239 49.245400 -43.303259 66.703713 0.000000 0.000000 0.000000
